<svg width="14" height="10" viewBox="0 0 14 10" fill="none" xmlns="http://www.w3.org/2000/svg">
<path d="M5.57609 9.27956C5.44483 9.27983 5.3148 9.25417 5.19347 9.20406C5.07215 9.15395 4.96191 9.08038 4.86909 8.98756L0.627091 4.74456C0.531518 4.65238 0.455259 4.54209 0.402766 4.42013C0.350272 4.29816 0.322595 4.16696 0.321348 4.03418C0.320102 3.9014 0.345311 3.76971 0.395505 3.64678C0.445699 3.52385 0.519872 3.41214 0.613698 3.31819C0.707523 3.22423 0.819121 3.1499 0.941981 3.09953C1.06484 3.04916 1.1965 3.02377 1.32928 3.02482C1.46206 3.02588 1.5933 3.05337 1.71534 3.1057C1.83738 3.15802 1.94778 3.23412 2.04009 3.32956L5.57509 6.86456L11.9401 0.501562C12.1276 0.313921 12.382 0.208453 12.6472 0.208359C12.9125 0.208265 13.167 0.313553 13.3546 0.501061C13.5422 0.68857 13.6477 0.942938 13.6478 1.20821C13.6479 1.47348 13.5426 1.72792 13.3551 1.91556L6.28309 8.98756C6.19027 9.08038 6.08003 9.15395 5.95871 9.20406C5.83738 9.25417 5.70736 9.27983 5.57609 9.27956Z" fill="#2FAB73"/>
</svg>
